<svg width="431" height="86" viewBox="0 0 431 86" fill="none" xmlns="http://www.w3.org/2000/svg">
<path d="M131.65 19.325L145 48.275L158.35 19.325H170.575V68H161.65V31.025L147.85 62.675H142.075L127.825 29.975V68H118.975V19.325H131.65ZM209.952 35.9C211.202 37.5 212.127 39.35 212.727 41.45C213.377 43.55 213.702 45.475 213.702 47.225C213.702 48.975 213.602 50.55 213.402 51.95H189.852C189.952 54.9 190.677 57.3 192.027 59.15C193.377 61 195.427 61.925 198.177 61.925C201.827 61.925 204.002 60.325 204.702 57.125H213.627C213.027 60.775 211.352 63.65 208.602 65.75C205.752 67.95 202.277 69.05 198.177 69.05C193.377 69.05 189.352 67.3 186.102 63.8C182.752 60.15 181.077 55.475 181.077 49.775C181.077 43.925 182.752 39.225 186.102 35.675C189.302 32.275 193.327 30.575 198.177 30.575C203.227 30.575 207.152 32.35 209.952 35.9ZM198.252 37.625C195.752 37.625 193.802 38.45 192.402 40.1C191.002 41.7 190.177 43.775 189.927 46.325H205.452C205.452 42.375 204.202 39.725 201.702 38.375C200.752 37.875 199.602 37.625 198.252 37.625ZM248.072 62.375C245.822 66.825 242.372 69.05 237.722 69.05C233.072 69.05 229.172 67.275 226.022 63.725C222.772 60.025 221.147 55.325 221.147 49.625C221.147 43.925 222.697 39.3 225.797 35.75C228.847 32.3 232.647 30.575 237.197 30.575C241.747 30.575 245.172 32.4 247.472 36.05V16.55H256.397V68H249.122L248.072 62.375ZM238.847 38.525C236.347 38.525 234.247 39.55 232.547 41.6C230.897 43.6 230.072 46.3 230.072 49.7C230.072 53.1 230.922 55.85 232.622 57.95C234.322 60 236.472 61.025 239.072 61.025C241.222 61.025 243.147 60.175 244.847 58.475C246.597 56.725 247.472 54.525 247.472 51.875V47.15C247.372 44.55 246.497 42.425 244.847 40.775C243.347 39.275 241.347 38.525 238.847 38.525ZM266.392 31.55H271.792V27.275C271.792 23.525 272.892 20.65 275.092 18.65C277.092 16.85 279.692 15.95 282.892 15.95C284.942 15.95 287.467 16.25 290.467 16.85L288.742 23.675C287.342 23.175 286.067 22.925 284.917 22.925C283.817 22.925 282.842 23.25 281.992 23.9C281.142 24.5 280.717 25.65 280.717 27.35V31.55H287.392V37.475H280.717V68H271.792V37.475H266.392V31.55ZM297.832 16.55H306.682V68H297.832V16.55ZM334.936 30.575C337.386 30.575 339.686 30.975 341.836 31.775C343.986 32.525 345.836 33.7 347.386 35.3C350.836 38.8 352.561 43.65 352.561 49.85C352.561 55.95 350.836 60.75 347.386 64.25C344.286 67.45 340.136 69.05 334.936 69.05C329.736 69.05 325.536 67.45 322.336 64.25C318.886 60.8 317.161 56 317.161 49.85C317.161 43.6 318.886 38.75 322.336 35.3C325.486 32.15 329.686 30.575 334.936 30.575ZM343.711 49.775C343.711 45.925 342.961 43.05 341.461 41.15C339.961 39.2 337.861 38.225 335.161 38.225C332.511 38.225 330.336 39.2 328.636 41.15C326.936 43.05 326.086 45.925 326.086 49.775C326.086 53.625 326.836 56.525 328.336 58.475C329.886 60.375 331.986 61.325 334.636 61.325C337.286 61.325 339.461 60.375 341.161 58.475C342.861 56.525 343.711 53.625 343.711 49.775ZM366.316 31.55L373.666 57.575L380.641 33.575H388.666L395.641 57.65L403.066 31.55H411.916L399.916 68H391.216L384.466 46.175L377.866 68H369.091L357.016 31.55H366.316Z" fill="#022B4C"/>
<path d="M420.902 68.675C419.102 68.675 417.627 68.125 416.477 67.025C415.327 65.925 414.752 64.525 414.752 62.825C414.752 61.125 415.327 59.7 416.477 58.55C417.627 57.4 419.102 56.825 420.902 56.825C422.702 56.825 424.202 57.4 425.402 58.55C426.602 59.7 427.202 61.125 427.202 62.825C427.202 64.525 426.602 65.925 425.402 67.025C424.202 68.125 422.702 68.675 420.902 68.675Z" fill="#3BBFAF"/>
<mask id="path-2-inside-1" fill="white">
<path d="M78.3435 24.7126H73.5491V19.9183C73.5491 18.3549 72.2985 17 70.6309 17C69.0675 17 67.7126 18.2507 67.7126 19.9183V24.7126H62.9183C61.3549 24.7126 60 25.9633 60 27.6309C60 29.2985 61.2507 30.5491 62.9183 30.5491H67.7126V35.3435C67.7126 36.9068 68.9633 38.2617 70.6309 38.2617C72.1942 38.2617 73.5491 37.011 73.5491 35.3435V30.5491H78.3435C79.9068 30.5491 81.2617 29.2985 81.2617 27.6309C81.2617 25.9633 79.9068 24.7126 78.3435 24.7126Z"/>
</mask>
<path d="M73.5491 24.7126H66.5491V31.7126H73.5491V24.7126ZM67.7126 24.7126V31.7126H74.7126V24.7126H67.7126ZM67.7126 30.5491H74.7126V23.5491H67.7126V30.5491ZM73.5491 30.5491V23.5491H66.5491V30.5491H73.5491ZM78.3435 17.7126H73.5491V31.7126H78.3435V17.7126ZM80.5491 24.7126V19.9183H66.5491V24.7126H80.5491ZM80.5491 19.9183C80.5491 14.6529 76.3264 10 70.6309 10V24C68.2705 24 66.5491 22.057 66.5491 19.9183H80.5491ZM70.6309 10C65.3654 10 60.7126 14.2228 60.7126 19.9183H74.7126C74.7126 22.2786 72.7696 24 70.6309 24V10ZM60.7126 19.9183V24.7126H74.7126V19.9183H60.7126ZM67.7126 17.7126H62.9183V31.7126H67.7126V17.7126ZM62.9183 17.7126C57.6529 17.7126 53 21.9353 53 27.6309H67C67 29.9912 65.057 31.7126 62.9183 31.7126V17.7126ZM53 27.6309C53 33.1644 57.3847 37.5491 62.9183 37.5491V23.5491C63.8818 23.5491 64.9506 23.9327 65.7835 24.7656C66.6165 25.5985 67 26.6674 67 27.6309H53ZM62.9183 37.5491H67.7126V23.5491H62.9183V37.5491ZM60.7126 30.5491V35.3435H74.7126V30.5491H60.7126ZM60.7126 35.3435C60.7126 40.6088 64.9353 45.2617 70.6309 45.2617V31.2617C72.9912 31.2617 74.7126 33.2048 74.7126 35.3435H60.7126ZM70.6309 45.2617C75.8963 45.2617 80.5491 41.039 80.5491 35.3435H66.5491C66.5491 32.9831 68.4922 31.2617 70.6309 31.2617V45.2617ZM80.5491 35.3435V30.5491H66.5491V35.3435H80.5491ZM73.5491 37.5491H78.3435V23.5491H73.5491V37.5491ZM78.3435 37.5491C83.6088 37.5491 88.2617 33.3264 88.2617 27.6309H74.2617C74.2617 25.2705 76.2048 23.5491 78.3435 23.5491V37.5491ZM88.2617 27.6309C88.2617 21.9353 83.6088 17.7126 78.3435 17.7126V31.7126C76.2048 31.7126 74.2617 29.9912 74.2617 27.6309H88.2617Z" fill="#3BBFAF" mask="url(#path-2-inside-1)"/>
<path d="M55.6258 11.9637C64.2019 3.3438 78.2916 3.3288 86.9814 12.0186C95.6729 20.71 95.6729 34.7373 86.9814 43.4287L51.2745 79.1356C50.2425 80.1081 48.6911 80.0099 47.8587 79.1776L47.8531 79.1719L12.0056 43.4287C12.0047 43.4278 12.0039 43.427 12.003 43.4261C3.31736 34.7377 3.31802 20.7267 12.0912 12.0371L12.11 12.0185L12.1286 11.9997C20.7012 3.34386 34.8181 3.31671 43.5199 12.0186L45.7086 14.2073L49.6937 18.1924L53.5805 14.1113L55.6258 11.9637Z" stroke="#065AD9" stroke-width="11"/>
<circle cx="71" cy="28" r="22.5" stroke="#065AD9" stroke-width="11"/>
</svg>
