<svg width="64" height="55" viewBox="0 0 64 55" fill="none" xmlns="http://www.w3.org/2000/svg">
<path d="M34.2325 8.7226L35.5589 7.33401C41.3219 1.55433 50.791 1.54627 56.6264 7.36419C62.4578 13.1782 62.4578 22.5592 56.6264 28.3732L33.5378 51.3927C32.6579 52.2259 31.3024 52.1716 30.5429 51.4144L30.5399 51.4114L7.36517 28.3732C7.36474 28.3728 7.3643 28.3723 7.36387 28.3719C1.53552 22.5596 1.53581 13.1873 7.42236 7.3743L7.43262 7.36417L7.44279 7.35393C13.2038 1.55436 22.688 1.5396 28.5301 7.36419L29.945 8.77488L32.1155 10.9388L34.2325 8.7226ZM32.0278 17.6672C32.0278 25.5127 38.4327 31.8855 46.2798 31.8855C54.1269 31.8855 60.5318 25.5127 60.5318 17.6672C60.5318 9.8217 54.1269 3.44885 46.2798 3.44885C38.4327 3.44885 32.0278 9.8217 32.0278 17.6672Z" stroke="#065AD9" stroke-width="6"/>
<mask id="path-2-inside-1" fill="white">
<path d="M51.2656 15.7863H48.1663V12.6962C48.1663 11.6885 47.3578 10.8153 46.2797 10.8153C45.2691 10.8153 44.3932 11.6214 44.3932 12.6962V15.7863H41.2938C40.2831 15.7863 39.4072 16.5924 39.4072 17.6672C39.4072 18.742 40.2158 19.5481 41.2938 19.5481H44.3932V22.6382C44.3932 23.6458 45.2017 24.5191 46.2797 24.5191C47.2904 24.5191 48.1663 23.713 48.1663 22.6382V19.5481H51.2656C52.2763 19.5481 53.1522 18.742 53.1522 17.6672C53.1522 16.5924 52.2763 15.7863 51.2656 15.7863Z"/>
</mask>
<path d="M48.1663 15.7863H41.1663V22.7863H48.1663V15.7863ZM44.3932 15.7863V22.7863H51.3932V15.7863H44.3932ZM44.3932 19.5481H51.3932V12.5481H44.3932V19.5481ZM48.1663 19.5481V12.5481H41.1663V19.5481H48.1663ZM51.2656 8.78626H48.1663V22.7863H51.2656V8.78626ZM55.1663 15.7863V12.6962H41.1663V15.7863H55.1663ZM55.1663 12.6962C55.1663 7.96648 51.3661 3.81527 46.2797 3.81527V17.8153C43.3494 17.8153 41.1663 15.4106 41.1663 12.6962H55.1663ZM46.2797 3.81527C41.587 3.81527 37.3932 7.57394 37.3932 12.6962H51.3932C51.3932 15.6688 48.9511 17.8153 46.2797 17.8153V3.81527ZM37.3932 12.6962V15.7863H51.3932V12.6962H37.3932ZM44.3932 8.78626H41.2938V22.7863H44.3932V8.78626ZM41.2938 8.78626C36.6011 8.78626 32.4072 12.5449 32.4072 17.6672H46.4072C46.4072 20.6398 43.9652 22.7863 41.2938 22.7863V8.78626ZM32.4072 17.6672C32.4072 22.6277 36.3696 26.5481 41.2938 26.5481V12.5481C42.5454 12.5481 43.8699 13.0379 44.8886 14.0535C45.9083 15.0702 46.4072 16.4006 46.4072 17.6672H32.4072ZM41.2938 26.5481H44.3932V12.5481H41.2938V26.5481ZM37.3932 19.5481V22.6382H51.3932V19.5481H37.3932ZM37.3932 22.6382C37.3932 27.3678 41.1933 31.5191 46.2797 31.5191V17.5191C49.2101 17.5191 51.3932 19.9238 51.3932 22.6382H37.3932ZM46.2797 31.5191C50.9724 31.5191 55.1663 27.7604 55.1663 22.6382H41.1663C41.1663 19.6655 43.6084 17.5191 46.2797 17.5191V31.5191ZM55.1663 22.6382V19.5481H41.1663V22.6382H55.1663ZM48.1663 26.5481H51.2656V12.5481H48.1663V26.5481ZM51.2656 26.5481C55.9583 26.5481 60.1522 22.7894 60.1522 17.6672H46.1522C46.1522 14.6945 48.5943 12.5481 51.2656 12.5481V26.5481ZM60.1522 17.6672C60.1522 12.5449 55.9583 8.78626 51.2656 8.78626V22.7863C48.5943 22.7863 46.1522 20.6398 46.1522 17.6672H60.1522Z" fill="#3BBFAF" mask="url(#path-2-inside-1)"/>
</svg>
